<svg width="24" height="24" viewBox="0 0 24 24" fill="none" xmlns="http://www.w3.org/2000/svg">
<path fill-rule="evenodd" clip-rule="evenodd" d="M16.1653 23.2641H15.6987C15.648 21.3254 15.584 18.5414 15.5493 16.2267L18.6587 16.1654L19.2507 12.6987L15.5333 12.9654C15.6 10.1334 16.1253 9.60006 17.9653 9.60006C18.5413 9.60006 19.1333 9.60006 19.5253 9.60006V5.99472C18.5008 5.85934 17.468 5.79784 16.4347 5.81072C12.648 5.81072 11.4667 8.17606 11.4667 12.8667V13.2241L9.55465 13.3547L9.52799 16.3414L11.4587 16.3041C11.4587 18.7681 11.4373 21.3707 11.4293 23.1947C9.79999 23.1601 8.19199 23.1254 6.89599 23.1254C2.01332 23.1254 0.687988 20.2374 0.687988 16.5654C0.687988 12.8934 0.759987 8.83206 0.759987 7.44006C0.759987 3.31472 2.58665 1.02406 7.11465 1.02406C8.78932 1.02406 15.088 1.00806 17.232 1.00806C21.352 1.00806 23.328 2.70939 23.328 7.69072C23.328 8.92006 23.2373 11.2214 23.2373 17.6027C23.2293 21.6161 21.3333 23.2641 16.1653 23.2641Z" fill="black"/>
</svg>
