<svg width="24" height="24" viewBox="0 0 24 24" fill="none" xmlns="http://www.w3.org/2000/svg">
<path fill-rule="evenodd" clip-rule="evenodd" d="M16.1653 23.2641C13.4133 23.2641 9.49866 23.1254 6.88799 23.1254C2.00533 23.1254 0.679993 20.2374 0.679993 16.5654C0.679993 12.8934 0.751993 8.83206 0.751993 7.44006C0.751993 3.31472 2.57866 1.02406 7.10666 1.02406C8.78133 1.02406 15.08 1.00806 17.224 1.00806C21.344 1.00806 23.32 2.70939 23.32 7.69072C23.32 8.92006 23.2293 11.2214 23.2293 17.6027C23.2293 21.6161 21.3333 23.2641 16.1653 23.2641ZM12.032 6.31739C4.34666 6.31739 3.97599 18.0134 12.1627 18.0134C19.64 18.0134 19.688 6.31739 12.032 6.31739ZM18.9787 4.00006C16.7573 4.00006 16.6507 7.36272 19.0187 7.36272C21.1787 7.35739 21.1947 4.00006 18.9787 4.00006Z" fill="black"/>
</svg>
