<svg width="24" height="24" viewBox="0 0 24 24" fill="none" xmlns="http://www.w3.org/2000/svg">
<path fill-rule="evenodd" clip-rule="evenodd" d="M16.1653 23.2641C13.4133 23.2641 9.49866 23.1254 6.88799 23.1254C2.00533 23.1254 0.679993 20.2374 0.679993 16.5654C0.679993 12.8934 0.751993 8.83206 0.751993 7.44006C0.751993 3.31472 2.57866 1.02406 7.10666 1.02406C8.78133 1.02406 15.08 1.00806 17.224 1.00806C21.344 1.00806 23.32 2.70939 23.32 7.69072C23.32 8.92006 23.2293 11.2214 23.2293 17.6027C23.2293 21.6161 21.3333 23.2641 16.1653 23.2641ZM20.432 8.99472L17.6 6.97872L13.4347 11.5707L13.5627 7.49072L9.68 7.42672L10.1333 8.91739L10.224 13.4507C8.81066 13.2054 7.08799 9.66139 7.19733 7.58406L3.49866 7.63472C4.39999 14.9441 9.80266 18.4934 13.2507 17.9921L13.3333 15.2934C13.6 15.1654 13.9627 14.9681 14.4 14.7067L16.8933 17.9787L20.9947 17.7574L17.0667 12.8001C18.3854 11.7197 19.5225 10.4349 20.4347 8.99472H20.432Z" fill="black"/>
</svg>
