<svg width="77" height="17" viewBox="0 0 77 17" fill="none" xmlns="http://www.w3.org/2000/svg">
<path d="M0.540039 15.9999H7.55804C9.17871 15.9999 10.3814 15.5562 11.166 14.6689C11.958 13.7742 12.354 12.6192 12.354 11.2039C12.354 10.4412 12.167 9.74091 11.793 9.10291C11.4264 8.45758 10.8727 7.98091 10.132 7.67291C10.6014 7.38691 10.968 6.98358 11.232 6.46291C11.496 5.94225 11.628 5.32258 11.628 4.60391C11.628 3.90725 11.4667 3.21791 11.144 2.53591C10.8214 1.85391 10.3117 1.28925 9.61504 0.841913C8.91837 0.387246 8.00537 0.159912 6.87604 0.159912H0.540039V15.9999ZM3.57604 6.34191V2.95391H6.83204C7.40404 2.95391 7.84037 3.11891 8.14104 3.44891C8.44171 3.77891 8.59204 4.18591 8.59204 4.66991C8.59204 5.24925 8.42337 5.67458 8.08604 5.94591C7.75604 6.20991 7.33804 6.34191 6.83204 6.34191H3.57604ZM3.57604 13.1839V9.13591H7.25004C7.94671 9.13591 8.46737 9.32291 8.81204 9.69691C9.16404 10.0636 9.34004 10.5292 9.34004 11.0939C9.34004 11.7319 9.14204 12.2416 8.74604 12.6229C8.35737 12.9969 7.85871 13.1839 7.25004 13.1839H3.57604Z" fill="#6190FF"/>
<path d="M13.8879 15.9999H17.0119L19.2779 12.2159C19.3439 12.2159 19.4062 12.2159 19.4649 12.2159C19.5235 12.2159 19.5785 12.2159 19.6299 12.2159H21.5439V15.9999H24.5359V4.11991H19.6299C19.3585 4.11991 19.0102 4.12725 18.5849 4.14191C18.1669 4.14925 17.7599 4.19325 17.3639 4.27391C16.3959 4.45725 15.6222 4.88258 15.0429 5.54991C14.4635 6.21725 14.1739 7.09725 14.1739 8.18991C14.1739 9.10658 14.3792 9.86925 14.7899 10.4779C15.2079 11.0866 15.7579 11.5302 16.4399 11.8089L13.8879 15.9999ZM19.2999 9.90591C19.1825 9.90591 19.0432 9.89858 18.8819 9.88391C18.7279 9.86925 18.5739 9.83991 18.4199 9.79591C18.1119 9.70791 17.8332 9.52091 17.5839 9.23491C17.3345 8.94158 17.2099 8.58591 17.2099 8.16791C17.2099 7.77191 17.3272 7.42358 17.5619 7.12291C17.7965 6.82225 18.0679 6.62791 18.3759 6.53991C18.5445 6.49591 18.7059 6.46658 18.8599 6.45191C19.0212 6.43725 19.1679 6.42991 19.2999 6.42991H21.5439V9.90591H19.2999Z" fill="#6190FF"/>
<path d="M31.8124 16.3299C32.6924 16.3299 33.5064 16.1832 34.2544 15.8899C35.0024 15.5966 35.6037 15.1602 36.0584 14.5809C36.513 14.0016 36.7404 13.2866 36.7404 12.4359C36.7404 11.8639 36.6304 11.3506 36.4104 10.8959C36.1977 10.4412 35.897 10.0599 35.5084 9.75191C35.809 9.37058 36.0217 8.98191 36.1464 8.58591C36.2784 8.18991 36.3444 7.78658 36.3444 7.37591C36.3444 6.57658 36.1317 5.91291 35.7064 5.38491C35.2884 4.84958 34.7384 4.44991 34.0564 4.18591C33.3817 3.92191 32.663 3.78991 31.9004 3.78991C30.9984 3.78991 30.133 3.96225 29.3044 4.30691C28.483 4.64425 27.735 5.09525 27.0604 5.65991L28.7104 7.70591C29.1504 7.39791 29.638 7.13025 30.1734 6.90291C30.7087 6.67558 31.2404 6.56191 31.7684 6.56191C32.1644 6.56191 32.5127 6.64258 32.8134 6.80391C33.114 6.96525 33.2644 7.25125 33.2644 7.66191C33.2644 8.15325 33.048 8.45391 32.6154 8.56391C32.1827 8.66658 31.6584 8.71791 31.0424 8.71791H30.3384V11.0499H31.0424C31.453 11.0499 31.86 11.0536 32.2634 11.0609C32.674 11.0682 33.0114 11.1452 33.2754 11.2919C33.5467 11.4386 33.6824 11.7172 33.6824 12.1279C33.6824 12.5532 33.5137 12.8942 33.1764 13.1509C32.8464 13.4076 32.3844 13.5359 31.7904 13.5359C31.2184 13.5359 30.6904 13.4149 30.2064 13.1729C29.7297 12.9309 29.2824 12.5972 28.8644 12.1719L26.5104 13.7559C27.053 14.5552 27.7937 15.1859 28.7324 15.6479C29.6784 16.1026 30.705 16.3299 31.8124 16.3299Z" fill="#6190FF"/>
<path d="M42.4689 16.3299C43.3856 16.3299 44.1556 16.1906 44.7789 15.9119C45.4096 15.6259 45.9889 15.1712 46.5169 14.5479V15.9999H49.1349V8.73991C49.1349 8.19725 49.1129 7.70591 49.0689 7.26591C49.0249 6.82591 48.8856 6.38591 48.6509 5.94591C48.2329 5.15391 47.6169 4.59658 46.8029 4.27391C45.9889 3.95125 45.0576 3.78991 44.0089 3.78991C42.5789 3.78991 41.4496 4.09791 40.6209 4.71391C39.7923 5.32991 39.2276 6.12925 38.9269 7.11191L41.6329 7.96991C41.8236 7.42725 42.1573 7.04958 42.6339 6.83691C43.1106 6.62425 43.5689 6.51791 44.0089 6.51791C44.7129 6.51791 45.2373 6.64991 45.5819 6.91391C45.9266 7.17058 46.1283 7.57758 46.1869 8.13491C45.0723 8.29625 44.0896 8.45391 43.2389 8.60791C42.3883 8.75458 41.6769 8.93058 41.1049 9.13591C40.1516 9.48791 39.4806 9.96825 39.0919 10.5769C38.7033 11.1782 38.5089 11.8932 38.5089 12.7219C38.5089 13.3819 38.6593 13.9869 38.9599 14.5369C39.2679 15.0796 39.7153 15.5159 40.3019 15.8459C40.8959 16.1686 41.6183 16.3299 42.4689 16.3299ZM43.1069 13.9759C42.5936 13.9759 42.1866 13.8622 41.8859 13.6349C41.5853 13.4002 41.4349 13.0812 41.4349 12.6779C41.4349 12.3772 41.5303 12.1206 41.7209 11.9079C41.9116 11.6879 42.2269 11.4899 42.6669 11.3139C43.0043 11.1892 43.4186 11.0756 43.9099 10.9729C44.4086 10.8629 45.1603 10.7236 46.1649 10.5549C46.1576 10.8409 46.1356 11.1562 46.0989 11.5009C46.0623 11.8382 45.9816 12.1352 45.8569 12.3919C45.7763 12.5606 45.6223 12.7696 45.3949 13.0189C45.1749 13.2682 44.8743 13.4919 44.4929 13.6899C44.1189 13.8806 43.6569 13.9759 43.1069 13.9759Z" fill="#6190FF"/>
<path d="M51.9731 15.9999H54.9651V11.4459H59.8491V15.9999H62.8411V4.11991H59.8491V8.65191H54.9651V4.11991H51.9731V15.9999Z" fill="#6190FF"/>
<path d="M65.895 15.9999H70.801C71.131 15.9999 71.5197 15.9926 71.967 15.9779C72.4143 15.9559 72.781 15.9119 73.067 15.8459C74.101 15.6039 74.8893 15.1639 75.432 14.5259C75.982 13.8806 76.257 13.0299 76.257 11.9739C76.257 10.8739 75.982 10.0012 75.432 9.35591C74.8893 8.70325 74.0937 8.26325 73.045 8.03591C72.759 7.97725 72.396 7.94058 71.956 7.92591C71.516 7.91125 71.131 7.90391 70.801 7.90391H68.887V4.11991H65.895V15.9999ZM68.887 13.6899V10.2139H71.131C71.2557 10.2139 71.395 10.2212 71.549 10.2359C71.703 10.2506 71.857 10.2799 72.011 10.3239C72.3337 10.4119 72.616 10.6062 72.858 10.9069C73.1 11.2002 73.221 11.5559 73.221 11.9739C73.221 12.3552 73.1037 12.6962 72.869 12.9969C72.6343 13.2976 72.363 13.4919 72.055 13.5799C71.8937 13.6239 71.7323 13.6532 71.571 13.6679C71.4097 13.6826 71.263 13.6899 71.131 13.6899H68.887Z" fill="#6190FF"/>
</svg>
